<mxfile host="app.diagrams.net" agent="Mozilla/5.0 (Windows NT 10.0; Win64; x64) AppleWebKit/537.36 (KHTML, like Gecko) Chrome/141.0.0.0 Safari/537.36" version="28.2.5">
  <diagram name="Spaceship_states" id="kkRNWsyKXszOTp3L6Bwh">
    <mxGraphModel dx="1426" dy="838" grid="1" gridSize="10" guides="1" tooltips="1" connect="1" arrows="1" fold="1" page="1" pageScale="1" pageWidth="827" pageHeight="1169" math="0" shadow="0">
      <root>
        <mxCell id="0" />
        <mxCell id="1" parent="0" />
        <mxCell id="kp4_UHSXhr0KvTOEVI20-1" value="IDLE" style="ellipse;whiteSpace=wrap;html=1;fillColor=#f5f5f5;fontColor=#333333;strokeColor=#666666;" vertex="1" parent="1">
          <mxGeometry x="200" y="160" width="120" height="80" as="geometry" />
        </mxCell>
        <mxCell id="kp4_UHSXhr0KvTOEVI20-3" value="&lt;b&gt;sd&lt;/b&gt;&amp;nbsp;Spaceship" style="shape=umlFrame;whiteSpace=wrap;html=1;pointerEvents=0;width=140;height=30;" vertex="1" parent="1">
          <mxGeometry x="60" y="80" width="530" height="520" as="geometry" />
        </mxCell>
        <mxCell id="kp4_UHSXhr0KvTOEVI20-7" style="rounded=0;orthogonalLoop=1;jettySize=auto;html=1;exitX=1;exitY=1;exitDx=0;exitDy=0;entryX=0;entryY=1;entryDx=0;entryDy=0;" edge="1" parent="1" source="kp4_UHSXhr0KvTOEVI20-4" target="kp4_UHSXhr0KvTOEVI20-5">
          <mxGeometry relative="1" as="geometry" />
        </mxCell>
        <mxCell id="kp4_UHSXhr0KvTOEVI20-13" style="rounded=0;orthogonalLoop=1;jettySize=auto;html=1;exitX=0.5;exitY=0;exitDx=0;exitDy=0;" edge="1" parent="1" source="kp4_UHSXhr0KvTOEVI20-4" target="kp4_UHSXhr0KvTOEVI20-1">
          <mxGeometry relative="1" as="geometry" />
        </mxCell>
        <mxCell id="kp4_UHSXhr0KvTOEVI20-14" style="rounded=0;orthogonalLoop=1;jettySize=auto;html=1;exitX=1;exitY=0;exitDx=0;exitDy=0;entryX=1;entryY=1;entryDx=0;entryDy=0;" edge="1" parent="1" source="kp4_UHSXhr0KvTOEVI20-4" target="kp4_UHSXhr0KvTOEVI20-1">
          <mxGeometry relative="1" as="geometry" />
        </mxCell>
        <mxCell id="kp4_UHSXhr0KvTOEVI20-4" value="PARKED" style="ellipse;whiteSpace=wrap;html=1;fillColor=#f5f5f5;fontColor=#333333;strokeColor=#666666;" vertex="1" parent="1">
          <mxGeometry x="120" y="330" width="120" height="80" as="geometry" />
        </mxCell>
        <mxCell id="kp4_UHSXhr0KvTOEVI20-8" style="rounded=0;orthogonalLoop=1;jettySize=auto;html=1;exitX=0;exitY=0.5;exitDx=0;exitDy=0;entryX=1;entryY=0.413;entryDx=0;entryDy=0;entryPerimeter=0;" edge="1" parent="1" source="kp4_UHSXhr0KvTOEVI20-5" target="kp4_UHSXhr0KvTOEVI20-4">
          <mxGeometry relative="1" as="geometry" />
        </mxCell>
        <mxCell id="kp4_UHSXhr0KvTOEVI20-9" value="" style="rounded=0;orthogonalLoop=1;jettySize=auto;html=1;" edge="1" parent="1" source="kp4_UHSXhr0KvTOEVI20-5" target="kp4_UHSXhr0KvTOEVI20-6">
          <mxGeometry relative="1" as="geometry" />
        </mxCell>
        <mxCell id="kp4_UHSXhr0KvTOEVI20-5" value="RUN_FLY" style="ellipse;whiteSpace=wrap;html=1;fillColor=#f5f5f5;fontColor=#333333;strokeColor=#666666;" vertex="1" parent="1">
          <mxGeometry x="380" y="300" width="120" height="80" as="geometry" />
        </mxCell>
        <mxCell id="kp4_UHSXhr0KvTOEVI20-6" value="DESTROYED" style="ellipse;whiteSpace=wrap;html=1;fillColor=#f5f5f5;fontColor=#333333;strokeColor=#666666;" vertex="1" parent="1">
          <mxGeometry x="340" y="470" width="120" height="80" as="geometry" />
        </mxCell>
      </root>
    </mxGraphModel>
  </diagram>
</mxfile>
